<svg width="20" height="19" viewBox="0 0 20 19" fill="none" xmlns="http://www.w3.org/2000/svg">
<g clip-path="url(#clip0_94_206)">
<path d="M13.125 1.1875C12.2466 1.18729 11.3804 1.38255 10.5958 1.75763C9.81115 2.13271 9.12992 2.67719 8.60667 3.34743C8.08343 4.01767 7.73272 4.79503 7.58267 5.61721C7.43261 6.4394 7.48737 7.28355 7.74256 8.08201L1.25 14.25V17.8125H5L11.4926 11.6445C12.2663 11.8677 13.0815 11.9298 13.8828 11.8265C14.684 11.7233 15.4524 11.4571 16.1356 11.0463C16.8188 10.6354 17.4007 10.0894 17.8417 9.44551C18.2826 8.80164 18.5723 8.07502 18.6909 7.31518C18.8095 6.55533 18.7543 5.78012 18.529 5.04238C18.3038 4.30465 17.9137 3.62172 17.3854 3.04015C16.8572 2.45859 16.2032 1.99205 15.4679 1.67234C14.7327 1.35263 13.9336 1.18726 13.125 1.1875ZM13.125 10.6875C12.6946 10.6873 12.2667 10.6268 11.8549 10.5081L11.1381 10.3016L10.6086 10.8046L8.62044 12.6934L7.75881 11.875L6.875 12.7146L7.73669 13.5332L6.7455 14.4749L5.88381 13.6562L5 14.4959L5.86169 15.3144L4.48225 16.625H2.5V14.7419L8.62644 8.92175L9.15594 8.4186L8.93888 7.73775C8.67174 6.90115 8.68909 6.00582 8.98847 5.17913C9.28786 4.35244 9.85402 3.63648 10.6064 3.1331C11.3588 2.62972 12.2592 2.36455 13.1794 2.37532C14.0995 2.38608 14.9927 2.67223 15.7319 3.19306C16.471 3.71388 17.0184 4.44287 17.2963 5.27631C17.5742 6.10976 17.5683 7.00522 17.2796 7.83532C16.9908 8.66542 16.4339 9.38789 15.688 9.89995C14.9421 10.412 14.0453 10.6876 13.125 10.6875Z" fill="black"/>
<path d="M13.75 7.125C14.4404 7.125 15 6.59334 15 5.9375C15 5.28166 14.4404 4.75 13.75 4.75C13.0596 4.75 12.5 5.28166 12.5 5.9375C12.5 6.59334 13.0596 7.125 13.75 7.125Z" fill="black"/>
</g>
<defs>
<clipPath id="clip0_94_206">
<rect width="20" height="19" fill="white"/>
</clipPath>
</defs>
</svg>
