<svg width="18" height="20" viewBox="0 0 18 20" fill="none" xmlns="http://www.w3.org/2000/svg">
<path fill-rule="evenodd" clip-rule="evenodd" d="M17.25 3.25H13.5V2.5C13.5 1.25736 12.4926 0.25 11.25 0.25H6.75C5.50736 0.25 4.5 1.25736 4.5 2.5V3.25H0.75C0.335786 3.25 0 3.58579 0 4C0 4.41421 0.335786 4.75 0.75 4.75H1.5V18.25C1.5 19.0784 2.17157 19.75 3 19.75H15C15.8284 19.75 16.5 19.0784 16.5 18.25V4.75H17.25C17.6642 4.75 18 4.41421 18 4C18 3.58579 17.6642 3.25 17.25 3.25ZM6 2.5C6 2.08579 6.33579 1.75 6.75 1.75H11.25C11.6642 1.75 12 2.08579 12 2.5V3.25H6V2.5ZM15 18.25H3V4.75H15V18.25ZM7.5 8.5V14.5C7.5 14.9142 7.16421 15.25 6.75 15.25C6.33579 15.25 6 14.9142 6 14.5V8.5C6 8.08579 6.33579 7.75 6.75 7.75C7.16421 7.75 7.5 8.08579 7.5 8.5ZM12 8.5V14.5C12 14.9142 11.6642 15.25 11.25 15.25C10.8358 15.25 10.5 14.9142 10.5 14.5V8.5C10.5 8.08579 10.8358 7.75 11.25 7.75C11.6642 7.75 12 8.08579 12 8.5Z" fill="#0D141C"/>
</svg>
