<svg width="17" height="18" viewBox="0 0 17 18" fill="none" xmlns="http://www.w3.org/2000/svg">
<path fill-rule="evenodd" clip-rule="evenodd" d="M8.5 0.875C4.01269 0.875 0.375 4.51269 0.375 9C0.375 13.4873 4.01269 17.125 8.5 17.125C12.9873 17.125 16.625 13.4873 16.625 9C16.6203 4.51465 12.9854 0.879737 8.5 0.875ZM9.125 15.8461V10.875H11C11.3452 10.875 11.625 10.5952 11.625 10.25C11.625 9.90482 11.3452 9.625 11 9.625H9.125V7.75C9.125 7.05964 9.68464 6.5 10.375 6.5H11.625C11.9702 6.5 12.25 6.22018 12.25 5.875C12.25 5.52982 11.9702 5.25 11.625 5.25H10.375C8.99429 5.25 7.875 6.36929 7.875 7.75V9.625H6C5.65482 9.625 5.375 9.90482 5.375 10.25C5.375 10.5952 5.65482 10.875 6 10.875H7.875V15.8461C4.2149 15.512 1.46489 12.3582 1.63212 8.68674C1.79935 5.01523 4.82468 2.12456 8.5 2.12456C12.1753 2.12456 15.2006 5.01523 15.3679 8.68674C15.5351 12.3582 12.7851 15.512 9.125 15.8461Z" fill="#121417"/>
</svg>
