<svg width="17" height="18" viewBox="0 0 17 18" fill="none" xmlns="http://www.w3.org/2000/svg">
<path fill-rule="evenodd" clip-rule="evenodd" d="M8.5 5.25C6.42893 5.25 4.75 6.92893 4.75 9C4.75 11.0711 6.42893 12.75 8.5 12.75C10.5711 12.75 12.25 11.0711 12.25 9C12.2478 6.92982 10.5702 5.25215 8.5 5.25ZM8.5 11.5C7.11929 11.5 6 10.3807 6 9C6 7.61929 7.11929 6.5 8.5 6.5C9.88071 6.5 11 7.61929 11 9C11 10.3807 9.88071 11.5 8.5 11.5ZM12.25 0.875H4.75C2.33483 0.877584 0.377584 2.83483 0.375 5.25V12.75C0.377584 15.1652 2.33483 17.1224 4.75 17.125H12.25C14.6652 17.1224 16.6224 15.1652 16.625 12.75V5.25C16.6224 2.83483 14.6652 0.877584 12.25 0.875ZM15.375 12.75C15.375 14.4759 13.9759 15.875 12.25 15.875H4.75C3.02411 15.875 1.625 14.4759 1.625 12.75V5.25C1.625 3.52411 3.02411 2.125 4.75 2.125H12.25C13.9759 2.125 15.375 3.52411 15.375 5.25V12.75ZM13.5 4.9375C13.5 5.45527 13.0803 5.875 12.5625 5.875C12.0447 5.875 11.625 5.45527 11.625 4.9375C11.625 4.41973 12.0447 4 12.5625 4C13.0803 4 13.5 4.41973 13.5 4.9375Z" fill="#121417"/>
</svg>
