<svg width="20" height="19" viewBox="0 0 20 19" fill="none" xmlns="http://www.w3.org/2000/svg">
<path d="M1.88283 0.111298C1.18752 0.285712 0.585957 0.745868 0.277364 1.33962C-0.0195113 1.9111 1.99379e-05 1.3322 1.99379e-05 9.49997C1.99379e-05 15.7937 0.00783244 16.8662 0.0586137 17.0888C0.25002 17.9498 0.980489 18.666 1.89846 18.8886C2.18752 18.9591 2.34768 18.9629 6.1719 18.9629H10.1406L10.3399 18.8701C10.6211 18.7365 10.7539 18.5361 10.7735 18.2207C10.7891 17.9201 10.6836 17.7011 10.4336 17.5341L10.2656 17.4228L6.27736 17.4043L2.28518 17.3857L2.12893 17.3041C1.93361 17.2039 1.81643 17.0888 1.7383 16.9144C1.68752 16.792 1.67971 15.983 1.67971 9.49997C1.67971 3.01696 1.68752 2.20798 1.7383 2.08552C1.81643 1.9111 1.93361 1.79606 2.12893 1.69587L2.28518 1.61423L6.27736 1.59567L10.2656 1.57712L10.4336 1.46579C10.6836 1.2988 10.7891 1.07985 10.7735 0.779267C10.7539 0.463837 10.6211 0.263446 10.3399 0.129853L10.1406 0.0370791L6.15627 0.04079C2.3594 0.04079 2.15236 0.044501 1.88283 0.111298Z" fill="black"/>
<path d="M13.8906 4.00782C13.3633 4.16739 13.125 4.77227 13.4297 5.18419C13.4883 5.26212 14.3359 6.07481 15.3125 6.99512C16.2891 7.91172 17.0977 8.67618 17.1016 8.69102C17.1094 8.70958 14.9023 8.72071 12.1992 8.72071H7.28125L7.10938 8.80235C6.89453 8.90997 6.73828 9.09551 6.67188 9.32188C6.57813 9.65958 6.76563 10.027 7.10938 10.194L7.28125 10.2793H12.1992C14.9023 10.2793 17.1094 10.2904 17.1016 10.309C17.0977 10.3238 16.2891 11.0883 15.3125 12.0049C14.3359 12.9252 13.4883 13.7379 13.4297 13.8158C12.957 14.4541 13.7617 15.2965 14.5039 14.9291C14.6602 14.8549 19.8281 10.0047 19.9141 9.85254C20 9.70411 20 9.2959 19.9141 9.14747C19.8281 8.99161 14.6602 4.14512 14.5 4.06719C14.3438 3.98926 14.043 3.95958 13.8906 4.00782Z" fill="black"/>
</svg>
