<svg width="18" height="18" viewBox="0 0 18 18" fill="none" xmlns="http://www.w3.org/2000/svg">
<path fill-rule="evenodd" clip-rule="evenodd" d="M17.6875 6.60078C17.5328 6.12387 17.108 5.78556 16.6086 5.74141L11.9688 5.34141L10.15 1.01641C9.95637 0.55236 9.50282 0.250156 9 0.250156C8.49718 0.250156 8.04363 0.55236 7.85 1.01641L6.03672 5.34141L1.39141 5.74375C0.889898 5.78589 0.462575 6.12469 0.307166 6.60337C0.151757 7.08205 0.298576 7.60724 0.679688 7.93594L4.20391 11.0156L3.14766 15.5891C3.03347 16.0784 3.22335 16.5885 3.62968 16.884C4.03602 17.1796 4.57982 17.2031 5.01016 16.9438L8.99453 14.5219L12.9875 16.9438C13.4178 17.2031 13.9616 17.1796 14.368 16.884C14.7743 16.5885 14.9642 16.0784 14.85 15.5891L13.7945 11.0109L17.318 7.93594C17.6991 7.60609 17.8448 7.07963 17.6875 6.60078ZM16.4984 6.99141L12.975 10.0664C12.6255 10.3704 12.4728 10.8427 12.5781 11.2937L13.6367 15.875L9.64688 13.4531C9.25004 13.2115 8.75152 13.2115 8.35469 13.4531L4.37031 15.875L5.42188 11.2969C5.52719 10.8458 5.37447 10.3735 5.025 10.0695L1.5 6.99609C1.49971 6.99376 1.49971 6.9914 1.5 6.98906L6.14375 6.5875C6.60581 6.54677 7.00732 6.25353 7.18672 5.82578L9 1.50625L10.8125 5.82578C10.9919 6.25353 11.3934 6.54677 11.8555 6.5875L16.5 6.98906C16.5 6.98906 16.5 6.99375 16.5 6.99453L16.4984 6.99141Z" fill="#BAC4CF"/>
</svg>
