<svg width="17" height="16" viewBox="0 0 17 16" fill="none" xmlns="http://www.w3.org/2000/svg">
<path fill-rule="evenodd" clip-rule="evenodd" d="M16.8273 2.38594C16.7307 2.15237 16.5028 2.00005 16.25 2H13.8727C13.1966 0.849768 11.967 0.138159 10.6328 0.125C9.64562 0.112051 8.69495 0.49795 7.99609 1.19531C7.27683 1.90115 6.87264 2.86726 6.875 3.875V4.35078C3.72969 3.52109 1.15703 0.9625 1.12969 0.935156C0.958489 0.762442 0.702652 0.704713 0.473874 0.787173C0.245095 0.869634 0.0849206 1.07731 0.0632813 1.31953C-0.273438 5.05313 0.810937 7.55156 1.78203 8.98984C2.25553 9.70085 2.83155 10.338 3.49141 10.8805C2.30156 12.25 0.428125 12.9695 0.407813 12.9773C0.229146 13.0443 0.0908296 13.1891 0.0322351 13.3707C-0.0263593 13.5523 0.00118661 13.7506 0.107031 13.9094C0.165625 13.9969 0.4 14.3039 0.972656 14.5906C1.68047 14.9453 2.61562 15.125 3.75 15.125C9.27109 15.125 13.8844 10.8734 14.3555 5.40312L16.6922 3.06719C16.8709 2.88834 16.9242 2.61946 16.8273 2.38594ZM13.3117 4.68359C13.2046 4.79101 13.1401 4.93374 13.1305 5.08516C12.8125 10.0141 8.69375 13.875 3.75 13.875C2.925 13.875 2.34375 13.7656 1.93594 13.6344C2.83516 13.1461 4.08906 12.3063 4.89531 11.0969C4.99096 10.9531 5.02289 10.7762 4.98352 10.6081C4.94416 10.44 4.83702 10.2957 4.6875 10.2094C4.65078 10.1883 1.25703 8.15156 1.25 2.70937C2.5 3.725 4.78516 5.30078 7.39609 5.73984C7.57721 5.77038 7.76259 5.7197 7.90298 5.60128C8.04338 5.48285 8.12457 5.30867 8.125 5.125V3.875C8.12358 3.20146 8.394 2.55585 8.875 2.08437C9.33613 1.62238 9.9645 1.36653 10.6172 1.375C11.6062 1.3875 12.5305 1.99062 12.9172 2.87578C13.0168 3.10319 13.2416 3.25007 13.4898 3.25H14.7398L13.3117 4.68359Z" fill="#121417"/>
</svg>
